#!OML:ASF I:\Actors\actors\Patient Classification 1\Patient 1\Session 1\Subject1.ASF
:FULLY-SPECIFIED
:DEGREES
644
root 1.21996 17.3339 8.29187 49.1498 13.1047 -8.49802
lowerback 33.0759 1.5791 5.19618
upperback -2.34741 4.47853 1.59277
thorax -19.927 1.36895 -3.11142
lowerneck -2.49 -3.41137 -2.15041
upperneck 5.2434 -5.0751 11.4998
head 2.56063 -2.27831 4.06327
rclavicle 3.37934e-015 5.86415e-015
rhumerus -36.7863 -6.91281 -84.0884
rradius 49.8942
rwrist 6.50331
rhand 5.3417 -27.0096
rfingers 7.12502
rthumb 30.6958 -54.4686
lclavicle 3.37934e-015 5.86415e-015
lhumerus -29.046 -4.42283 93.2578
lradius 52.5264
lwrist 11.3201
lhand -22.78 -13.1224
lfingers 7.12502
lthumb 3.6556 16.826
rfemur -47.666 25.335 -3.61843
rtibia -2.33413
rfoot -33.3968 -41.1029
rtoes 40.0759
lfemur -51.5733 23.6514 -34.2289
ltibia -7.95545
lfoot 1.77897 -27.2002
ltoes -4.59164
645
root 1.19942 17.3274 8.30625 49.4818 12.4771 -9.08772
lowerback 33.075 2.01614 4.68725
upperback -2.39416 4.88121 1.75233
thorax -20.0199 1.59088 -2.84348
lowerneck -2.50164 -3.54776 -2.48673
upperneck 4.47173 -5.19338 11.8235
head 2.3391 -2.36377 4.23519
rclavicle 1.90833e-014 -2.87244e-014
rhumerus -36.7699 -6.99046 -83.9804
rradius 50.0011
rwrist 6.40523
rhand 5.28 -26.978
rfingers 7.12502
rthumb 30.637 -54.448
lclavicle 1.90833e-014 -2.87244e-014
lhumerus -29.4181 -4.57765 93.3378
lradius 53.0343
lwrist 11.5625
lhand -22.8585 -13.0582
lfingers 7.12502
lthumb 3.57973 16.8915
rfemur -48.7184 26.0231 -4.10167
rtibia -2.16467
rfoot -33.5581 -41.1157
rtoes 40.3618
lfemur -52.8975 25.5125 -35.965
ltibia -7.81678
lfoot 1.44343 -28.9329
ltoes -5.66189
646
root 1.17496 17.3203 8.32053 49.8558 11.7812 -9.67427
lowerback 33.0791 2.49723 4.22917
upperback -2.47779 5.33717 1.77811
thorax -20.1483 1.81783 -2.78134
lowerneck -2.61405 -3.77158 -2.22524
upperneck 3.84237 -5.45451 11.938
head 2.16651 -2.50636 4.20993
rclavicle 3.97569e-015 -9.93923e-016
rhumerus -36.8571 -7.36771 -83.9271
rradius 50.1791
rwrist 6.31743
rhand 5.27773 -27.0618
rfingers 7.12502
rthumb 30.6348 -54.5323
lclavicle 3.97569e-015 -9.93923e-016
lhumerus -29.6042 -4.87564 93.3479
lradius 53.1865
lwrist 11.6437
lhand -22.8936 -13.1893
lfingers 7.12502
lthumb 3.54588 16.761
rfemur -49.8637 26.7232 -4.68747
rtibia -1.97685
rfoot -33.7064 -41.139
rtoes 40.5559
lfemur -54.3646 27.3712 -37.8515
ltibia -7.6706
lfoot 1.14236 -30.6403
ltoes -6.66267
647
root 1.14745 17.3127 8.3343 50.2298 11.0871 -10.2588
lowerback 33.0883 3.05214 3.8643
upperback -2.54283 5.91592 1.75757
thorax -20.239 2.08265 -2.87837
lowerneck -2.85954 -4.09906 -1.98569
upperneck 3.19811 -5.8614 12.2318
head 2.03486 -2.71692 4.24778
rclavicle -4.85035e-014 -2.50469e-014
rhumerus -37.0194 -8.04345 -83.7766
rradius 50.4827
rwrist 6.21119
rhand 5.27751 -26.9914
rfingers 7.12502
rthumb 30.6346 -54.4618
lclavicle -4.85035e-014 -2.50469e-014
lhumerus -29.5634 -5.47457 93.461
lradius 53.0535
lwrist 11.7069
lhand -22.9752 -13.4776
lfingers 7.12502
lthumb 3.46702 16.4739
rfemur -50.9938 27.4249 -5.28384
rtibia -1.83316
rfoot -33.7221 -41.2351
rtoes 40.5594
lfemur -55.9793 29.1671 -39.8452
ltibia -7.43004
lfoot 0.767986 -32.3093
ltoes -7.52283
648
root 1.11969 17.3048 8.34652 50.5801 10.4662 -10.8902
lowerback 33.0742 3.51704 3.46027
upperback -2.60928 6.39045 1.8714
thorax -20.3548 2.31866 -2.75548
lowerneck -2.97792 -4.29125 -2.11034
upperneck 2.421 -6.0577 12.5938
head 1.83697 -2.8377 4.39224
rclavicle 5.56597e-015 6.89783e-014
rhumerus -37.1343 -8.35926 -83.6261
rradius 50.6944
rwrist 6.07553
rhand 5.33948 -26.8812
rfingers 7.12502
rthumb 30.6937 -54.3406
lclavicle 5.56597e-015 6.89783e-014
lhumerus -29.7536 -6.10375 93.5846
lradius 53.1724
lwrist 12.0948
lhand -23.2188 -13.4903
lfingers 7.12502
lthumb 3.23181 16.4649
rfemur -52.1038 28.1323 -5.79259
rtibia -1.69339
rfoot -33.7555 -41.3219
rtoes 40.5386
lfemur -57.7276 30.8865 -41.8591
ltibia -7.12152
lfoot 0.210808 -33.9716
ltoes -8.57693
649
root 1.09364 17.3003 8.35632 50.9475 9.96271 -11.3232
lowerback 33.0856 3.83344 3.08208
upperback -2.6743 6.697 2.04778
thorax -20.5022 2.48785 -2.50149
lowerneck -3.05473 -4.39196 -2.34622
upperneck 1.63245 -6.11875 12.8628
head 1.6177 -2.89619 4.53259
rclavicle -4.77083e-015 -2.68359e-014
rhumerus -37.161 -8.37778 -83.4583
rradius 50.8261
rwrist 5.79619
rhand 5.2946 -26.9333
rfingers 7.12502
rthumb 30.6509 -54.4007
lclavicle -4.77083e-015 -2.68359e-014
lhumerus -29.9448 -6.59533 93.7383
lradius 53.2339
lwrist 12.5429
lhand -23.3905 -13.4456
lfingers 7.12502
lthumb 3.06595 16.5122
rfemur -53.0836 28.6279 -6.30671
rtibia -1.55742
rfoot -33.7801 -41.4215
rtoes 40.5016
lfemur -59.4784 32.2677 -44.0056
ltibia -6.83096
lfoot -0.384936 -35.6323
ltoes -9.60968
650
root 1.06994 17.3036 8.36089 51.3007 9.69297 -11.3962
lowerback 33.2679 3.94565 2.87846
upperback -2.74419 6.80833 2.19811
thorax -20.7244 2.55307 -2.29098
lowerneck -3.25055 -4.51034 -2.64626
upperneck 1.10196 -6.23488 13.634
head 1.39193 -2.95136 4.36008
rclavicle 4.73108e-014 -4.41302e-014
rhumerus -37.1929 -8.35355 -83.3327
rradius 51.0479
rwrist 5.45492
rhand 5.09694 -27.066
rfingers 7.12502
rthumb 30.4624 -54.5685
lclavicle 4.73108e-014 -4.41302e-014
lhumerus -30.0399 -6.59517 93.8604
lradius 53.2321
lwrist 12.5261
lhand -23.222 -13.6092
lfingers 7.12502
lthumb 3.22869 16.3461
rfemur -53.7283 28.7499 -6.76089
rtibia -1.47678
rfoot -33.7902 -41.5214
rtoes 40.5171
lfemur -61.1086 33.0983 -46.2365
ltibia -6.52382
lfoot -0.997646 -37.3165
ltoes -10.6268
